<svg xmlns="http://www.w3.org/2000/svg" version="1.1" xmlns:xlink="http://www.w3.org/1999/xlink" xmlns:svgjs="http://svgjs.com/svgjs" width="1000" height="560" preserveAspectRatio="none" viewBox="0 0 1000 560">
    <g mask="url(&quot;#SvgjsMask3095&quot;)" fill="none">
        <rect width="1000" height="560" x="0" y="0" fill="rgba(0, 6, 16, 1)"></rect>
        <use xlink:href="#SvgjsG3097" transform="translate(0, 0)" fill="rgba(50, 62, 88, 1)"></use>
        <use xlink:href="#SvgjsG3097" transform="translate(930, 0)" fill="rgba(50, 62, 88, 1)"></use>
    </g>
    <defs>
        <mask id="SvgjsMask3095">
            <rect width="1000" height="560" fill="#ffffff"></rect>
        </mask>
        <g id="SvgjsG3096">
            <path d="M7.741 5.269c-0.003 0.523-0.481 1.084-1.101 1.084v8.856c0 1.261-1.714 1.261-1.716 0V6.354c-0.602 0-1.127-0.465-1.126-1.159V0.315c-0.001-0.423 0.612-0.44 0.616 0.017v3.606h0.51V0.299c0-0.389 0.59-0.414 0.591 0.016v3.623h0.526V0.307C6.044-0.103 6.618-0.12 6.616 0.323v3.615h0.526V0.307c-0.002-0.406 0.597-0.423 0.599 0.016v4.946zM12.309 1.449v13.76c0.002 1.229-1.715 1.211-1.717 0V9.746h-0.912V1.449c-0.001-1.932 2.631-1.932 2.629 0z"></path>
        </g>
        <g id="SvgjsG3097">
            <use xlink:href="#SvgjsG3096" transform="translate(0, 0) scale(3)" fill="rgba(50, 62, 88, 1)"></use>
            <use xlink:href="#SvgjsG3096" transform="translate(0, 93) scale(3)" fill="rgba(50, 62, 88, 1)"></use>
            <use xlink:href="#SvgjsG3096" transform="translate(0, 186) scale(3)" fill="rgba(50, 62, 88, 1)"></use>
            <use xlink:href="#SvgjsG3096" transform="translate(0, 279) scale(3)" fill="rgba(50, 62, 88, 1)"></use>
            <use xlink:href="#SvgjsG3096" transform="translate(0, 372) scale(3)" fill="rgba(50, 62, 88, 1)"></use>
            <use xlink:href="#SvgjsG3096" transform="translate(0, 465) scale(3)" fill="rgba(50, 62, 88, 1)"></use>
            <use xlink:href="#SvgjsG3096" transform="translate(0, 558) scale(3)" fill="rgba(50, 62, 88, 1)"></use>
            <use xlink:href="#SvgjsG3096" transform="translate(93, 0) scale(3)" fill="rgba(50, 62, 88, 1)"></use>
            <use xlink:href="#SvgjsG3096" transform="translate(93, 93) scale(3)" fill="rgba(50, 62, 88, 1)"></use>
            <use xlink:href="#SvgjsG3096" transform="translate(93, 186) scale(3)" fill="rgba(50, 62, 88, 1)"></use>
            <use xlink:href="#SvgjsG3096" transform="translate(93, 279) scale(3)" fill="rgba(50, 62, 88, 1)"></use>
            <use xlink:href="#SvgjsG3096" transform="translate(93, 372) scale(3)" fill="rgba(50, 62, 88, 1)"></use>
            <use xlink:href="#SvgjsG3096" transform="translate(93, 465) scale(3)" fill="rgba(50, 62, 88, 1)"></use>
            <use xlink:href="#SvgjsG3096" transform="translate(93, 558) scale(3)" fill="rgba(50, 62, 88, 1)"></use>
            <use xlink:href="#SvgjsG3096" transform="translate(186, 0) scale(3)" fill="rgba(50, 62, 88, 1)"></use>
            <use xlink:href="#SvgjsG3096" transform="translate(186, 93) scale(3)" fill="rgba(50, 62, 88, 1)"></use>
            <use xlink:href="#SvgjsG3096" transform="translate(186, 186) scale(3)" fill="rgba(50, 62, 88, 1)"></use>
            <use xlink:href="#SvgjsG3096" transform="translate(186, 279) scale(3)" fill="rgba(50, 62, 88, 1)"></use>
            <use xlink:href="#SvgjsG3096" transform="translate(186, 372) scale(3)" fill="rgba(50, 62, 88, 1)"></use>
            <use xlink:href="#SvgjsG3096" transform="translate(186, 465) scale(3)" fill="rgba(50, 62, 88, 1)"></use>
            <use xlink:href="#SvgjsG3096" transform="translate(186, 558) scale(3)" fill="rgba(50, 62, 88, 1)"></use>
            <use xlink:href="#SvgjsG3096" transform="translate(279, 0) scale(3)" fill="rgba(50, 62, 88, 1)"></use>
            <use xlink:href="#SvgjsG3096" transform="translate(279, 93) scale(3)" fill="rgba(50, 62, 88, 1)"></use>
            <use xlink:href="#SvgjsG3096" transform="translate(279, 186) scale(3)" fill="rgba(50, 62, 88, 1)"></use>
            <use xlink:href="#SvgjsG3096" transform="translate(279, 279) scale(3)" fill="rgba(50, 62, 88, 1)"></use>
            <use xlink:href="#SvgjsG3096" transform="translate(279, 372) scale(3)" fill="rgba(50, 62, 88, 1)"></use>
            <use xlink:href="#SvgjsG3096" transform="translate(279, 465) scale(3)" fill="rgba(50, 62, 88, 1)"></use>
            <use xlink:href="#SvgjsG3096" transform="translate(279, 558) scale(3)" fill="rgba(50, 62, 88, 1)"></use>
            <use xlink:href="#SvgjsG3096" transform="translate(372, 0) scale(3)" fill="rgba(50, 62, 88, 1)"></use>
            <use xlink:href="#SvgjsG3096" transform="translate(372, 93) scale(3)" fill="rgba(50, 62, 88, 1)"></use>
            <use xlink:href="#SvgjsG3096" transform="translate(372, 186) scale(3)" fill="rgba(50, 62, 88, 1)"></use>
            <use xlink:href="#SvgjsG3096" transform="translate(372, 279) scale(3)" fill="rgba(50, 62, 88, 1)"></use>
            <use xlink:href="#SvgjsG3096" transform="translate(372, 372) scale(3)" fill="rgba(50, 62, 88, 1)"></use>
            <use xlink:href="#SvgjsG3096" transform="translate(372, 465) scale(3)" fill="rgba(50, 62, 88, 1)"></use>
            <use xlink:href="#SvgjsG3096" transform="translate(372, 558) scale(3)" fill="rgba(50, 62, 88, 1)"></use>
            <use xlink:href="#SvgjsG3096" transform="translate(465, 0) scale(3)" fill="rgba(50, 62, 88, 1)"></use>
            <use xlink:href="#SvgjsG3096" transform="translate(465, 93) scale(3)" fill="rgba(50, 62, 88, 1)"></use>
            <use xlink:href="#SvgjsG3096" transform="translate(465, 186) scale(3)" fill="rgba(50, 62, 88, 1)"></use>
            <use xlink:href="#SvgjsG3096" transform="translate(465, 279) scale(3)" fill="rgba(50, 62, 88, 1)"></use>
            <use xlink:href="#SvgjsG3096" transform="translate(465, 372) scale(3)" fill="rgba(50, 62, 88, 1)"></use>
            <use xlink:href="#SvgjsG3096" transform="translate(465, 465) scale(3)" fill="rgba(50, 62, 88, 1)"></use>
            <use xlink:href="#SvgjsG3096" transform="translate(465, 558) scale(3)" fill="rgba(50, 62, 88, 1)"></use>
            <use xlink:href="#SvgjsG3096" transform="translate(558, 0) scale(3)" fill="rgba(50, 62, 88, 1)"></use>
            <use xlink:href="#SvgjsG3096" transform="translate(558, 93) scale(3)" fill="rgba(50, 62, 88, 1)"></use>
            <use xlink:href="#SvgjsG3096" transform="translate(558, 186) scale(3)" fill="rgba(50, 62, 88, 1)"></use>
            <use xlink:href="#SvgjsG3096" transform="translate(558, 279) scale(3)" fill="rgba(50, 62, 88, 1)"></use>
            <use xlink:href="#SvgjsG3096" transform="translate(558, 372) scale(3)" fill="rgba(50, 62, 88, 1)"></use>
            <use xlink:href="#SvgjsG3096" transform="translate(558, 465) scale(3)" fill="rgba(50, 62, 88, 1)"></use>
            <use xlink:href="#SvgjsG3096" transform="translate(558, 558) scale(3)" fill="rgba(50, 62, 88, 1)"></use>
            <use xlink:href="#SvgjsG3096" transform="translate(651, 0) scale(3)" fill="rgba(50, 62, 88, 1)"></use>
            <use xlink:href="#SvgjsG3096" transform="translate(651, 93) scale(3)" fill="rgba(50, 62, 88, 1)"></use>
            <use xlink:href="#SvgjsG3096" transform="translate(651, 186) scale(3)" fill="rgba(50, 62, 88, 1)"></use>
            <use xlink:href="#SvgjsG3096" transform="translate(651, 279) scale(3)" fill="rgba(50, 62, 88, 1)"></use>
            <use xlink:href="#SvgjsG3096" transform="translate(651, 372) scale(3)" fill="rgba(50, 62, 88, 1)"></use>
            <use xlink:href="#SvgjsG3096" transform="translate(651, 465) scale(3)" fill="rgba(50, 62, 88, 1)"></use>
            <use xlink:href="#SvgjsG3096" transform="translate(651, 558) scale(3)" fill="rgba(50, 62, 88, 1)"></use>
            <use xlink:href="#SvgjsG3096" transform="translate(744, 0) scale(3)" fill="rgba(50, 62, 88, 1)"></use>
            <use xlink:href="#SvgjsG3096" transform="translate(744, 93) scale(3)" fill="rgba(50, 62, 88, 1)"></use>
            <use xlink:href="#SvgjsG3096" transform="translate(744, 186) scale(3)" fill="rgba(50, 62, 88, 1)"></use>
            <use xlink:href="#SvgjsG3096" transform="translate(744, 279) scale(3)" fill="rgba(50, 62, 88, 1)"></use>
            <use xlink:href="#SvgjsG3096" transform="translate(744, 372) scale(3)" fill="rgba(50, 62, 88, 1)"></use>
            <use xlink:href="#SvgjsG3096" transform="translate(744, 465) scale(3)" fill="rgba(50, 62, 88, 1)"></use>
            <use xlink:href="#SvgjsG3096" transform="translate(744, 558) scale(3)" fill="rgba(50, 62, 88, 1)"></use>
            <use xlink:href="#SvgjsG3096" transform="translate(837, 0) scale(3)" fill="rgba(50, 62, 88, 1)"></use>
            <use xlink:href="#SvgjsG3096" transform="translate(837, 93) scale(3)" fill="rgba(50, 62, 88, 1)"></use>
            <use xlink:href="#SvgjsG3096" transform="translate(837, 186) scale(3)" fill="rgba(50, 62, 88, 1)"></use>
            <use xlink:href="#SvgjsG3096" transform="translate(837, 279) scale(3)" fill="rgba(50, 62, 88, 1)"></use>
            <use xlink:href="#SvgjsG3096" transform="translate(837, 372) scale(3)" fill="rgba(50, 62, 88, 1)"></use>
            <use xlink:href="#SvgjsG3096" transform="translate(837, 465) scale(3)" fill="rgba(50, 62, 88, 1)"></use>
            <use xlink:href="#SvgjsG3096" transform="translate(837, 558) scale(3)" fill="rgba(50, 62, 88, 1)"></use>
        </g>
    </defs>
</svg>